<?xml version="1.0" standalone="no"?>
<!DOCTYPE svg PUBLIC "-//W3C//DTD SVG 20010904//EN"
 "http://www.w3.org/TR/2001/REC-SVG-20010904/DTD/svg10.dtd">
<svg version="1.0" xmlns="http://www.w3.org/2000/svg"
 width="1024.000000pt" height="1024.000000pt" viewBox="0 0 1024.000000 1024.000000"
 preserveAspectRatio="xMidYMid meet">

<g transform="translate(0.000000,1024.000000) scale(0.100000,-0.100000)"
fill="#000000" stroke="none">
<path d="M5910 7684 c0 -3 12 -21 26 -40 64 -83 68 -155 19 -324 -90 -308 -83
-532 24 -858 36 -109 35 -106 17 -99 -8 3 -109 16 -223 28 -277 30 -778 33
-1043 6 -426 -44 -786 -109 -1184 -217 -82 -22 -151 -38 -154 -36 -3 4 79 30
86 27 1 -1 16 6 32 14 17 9 30 13 30 11 0 -3 15 1 34 9 18 8 37 11 40 7 4 -3
4 1 0 11 -6 18 -5 18 76 19 32 0 36 3 35 27 0 21 -5 27 -22 27 -12 0 -20 -2
-18 -5 11 -10 -20 -31 -46 -31 -18 0 -32 -7 -39 -20 -6 -11 -18 -19 -28 -19
-16 1 -16 2 1 6 25 6 21 23 -5 23 -19 0 -20 2 -8 11 12 9 12 10 -3 5 -10 -3
-23 -6 -28 -6 -6 0 -7 -4 -4 -10 3 -5 -1 -10 -10 -10 -12 0 -15 5 -11 16 5 13
2 15 -16 9 -13 -4 -39 -7 -59 -8 -20 -1 -35 -7 -32 -12 2 -6 -7 -11 -19 -12
-13 0 -17 1 -10 4 6 3 10 9 7 13 -8 13 -55 -11 -55 -27 0 -8 -5 -11 -10 -8 -6
4 -8 11 -5 16 9 13 -22 11 -45 -3 -15 -10 -22 -10 -32 0 -11 11 -10 12 3 7 10
-4 20 -2 24 4 9 15 -29 8 -49 -8 -9 -8 -20 -11 -23 -7 -4 4 -1 11 7 16 13 8
12 10 -2 10 -10 0 -18 -7 -18 -15 0 -11 -7 -14 -25 -9 -14 3 -33 3 -42 -1 -10
-5 -24 -9 -32 -11 -8 -1 -17 -6 -20 -11 -8 -11 -41 -13 -41 -2 0 5 -8 9 -17 8
-11 0 -13 -3 -5 -6 17 -7 15 -20 -3 -20 -8 0 -15 4 -15 9 0 5 -4 6 -10 3 -5
-3 -10 -2 -10 2 0 5 -9 9 -20 9 -11 0 -20 -5 -20 -10 0 -5 -3 -6 -7 -2 -4 4
-15 -10 -25 -31 l-17 -38 7 45 c35 221 -62 369 -252 387 -112 10 -262 -36
-384 -118 -107 -73 -180 -147 -310 -314 -13 -17 -20 -23 -16 -15 12 23 76 113
91 129 8 7 12 20 9 27 -3 8 -3 21 1 30 4 12 7 13 14 3 4 -8 11 -10 16 -6 4 4
-10 23 -30 42 -21 19 -34 35 -29 35 5 0 19 -11 33 -26 22 -23 24 -24 36 -8 7
10 13 13 13 8 0 -6 -5 -15 -12 -22 -7 -7 -8 -12 -2 -12 6 0 43 28 82 61 62 52
71 64 60 77 -10 11 -10 16 -1 19 6 2 24 21 39 41 17 23 20 31 8 21 -31 -26
-42 -30 -50 -18 -4 8 -3 9 4 5 7 -4 12 -1 12 9 0 10 -5 13 -12 9 -7 -4 -8 -3
-4 5 4 6 12 9 17 6 11 -8 12 6 0 24 -5 7 -13 11 -19 7 -5 -3 -13 2 -17 12 -6
15 -8 15 -26 -6 -10 -13 -23 -22 -29 -20 -5 1 9 24 31 51 22 26 38 47 35 47
-11 0 -176 -199 -229 -276 -166 -242 -272 -504 -312 -769 -8 -55 -14 -122 -14
-150 l1 -50 14 50 c7 28 11 35 9 17 -28 -200 -29 -254 -12 -375 10 -67 19
-123 21 -124 1 -2 37 30 80 71 318 306 936 516 1741 592 220 21 812 24 1045 5
132 -10 345 -35 610 -72 36 -4 142 -11 235 -15 150 -5 182 -4 275 15 318 64
522 278 560 586 15 118 6 217 -37 410 -58 262 -55 417 14 648 l26 87 56 17
c143 41 377 -26 537 -155 122 -99 227 -264 293 -464 32 -95 34 -98 84 -129
166 -102 311 -293 390 -514 14 -39 38 -125 53 -190 27 -113 28 -133 28 -350 0
-178 -4 -251 -17 -325 -113 -607 -483 -1123 -985 -1374 -378 -190 -799 -204
-1083 -36 -113 67 -214 188 -254 305 -17 47 -114 -305 -140 -508 -18 -138 -20
-424 -4 -565 12 -108 29 -198 61 -316 l21 -79 201 6 c315 10 590 59 889 159
580 194 1126 596 1505 1109 266 360 451 777 542 1217 42 208 46 257 25 387
-79 514 -219 896 -463 1264 -298 450 -768 774 -1241 855 -168 29 -382 16 -511
-29 -41 -14 -42 -14 -78 15 -20 16 -72 40 -116 54 -86 29 -86 28 -86 20z
m-3757 -1114 c-3 -11 0 -26 6 -33 8 -10 7 -14 -4 -14 -20 0 -27 24 -15 48 14
25 20 24 13 -1z m-183 -200 c-11 -11 -20 -28 -20 -37 0 -13 -3 -14 -11 -6 -9
9 -6 20 11 42 12 17 26 29 30 26 5 -3 0 -15 -10 -25z m30 -55 c0 -12 -19 -12
-23 0 -4 9 -1 12 9 8 7 -3 14 -7 14 -8z m3813 -26 c75 -7 137 -16 137 -19 0
-3 -21 -13 -46 -24 -126 -52 -296 -195 -421 -353 -36 -46 -66 -83 -68 -83 -10
0 39 69 80 115 25 28 45 54 45 59 0 4 11 17 25 28 14 11 25 24 25 30 0 6 -8 1
-19 -10 -19 -23 -41 -29 -41 -12 0 6 4 10 8 10 5 0 20 10 33 22 18 16 19 19 6
15 -10 -4 -32 -7 -48 -7 -17 0 -28 -4 -24 -9 3 -5 0 -13 -6 -17 -7 -4 -9 -3
-6 3 7 11 -47 36 -56 27 -9 -9 -77 -10 -77 -2 0 13 -43 -1 -57 -19 -10 -13
-13 -12 -23 7 -9 16 -15 19 -23 11 -18 -18 -31 -13 -16 7 13 15 12 16 -3 4
-22 -17 -98 -13 -120 6 -10 8 -18 10 -18 5 0 -17 -34 -21 -48 -6 -7 7 -18 13
-25 12 -9 0 -9 -2 1 -6 6 -2 12 -9 12 -15 0 -6 -6 -8 -12 -5 -7 2 -22 1 -33
-3 -11 -4 -28 -4 -37 1 -11 6 -21 4 -31 -6 -13 -13 -17 -12 -29 2 -11 14 -11
16 1 8 9 -5 12 -4 8 3 -8 11 -44 5 -53 -9 -8 -14 -24 -11 -24 5 0 12 -5 12
-30 3 -16 -6 -30 -16 -30 -22 0 -6 -3 -6 -8 1 -11 17 -62 27 -62 12 0 -9 -3
-9 -12 0 -15 15 -39 16 -36 0 2 -6 -6 -14 -17 -16 -17 -4 -18 -2 -6 12 9 11
10 16 2 16 -6 0 -14 -6 -17 -14 -3 -8 -13 -17 -21 -20 -13 -5 -14 -4 -3 9 10
12 10 15 -3 15 -10 0 -14 6 -11 15 4 8 2 15 -4 15 -6 0 -12 -5 -14 -11 -2 -5
-10 -11 -18 -12 -8 -2 -21 -7 -29 -11 -9 -6 -12 -5 -8 1 4 6 -2 13 -13 16 -23
6 -50 -22 -42 -43 3 -8 -7 -1 -21 15 -15 17 -24 22 -21 13 4 -12 1 -18 -10
-18 -9 0 -15 3 -15 8 4 22 -3 32 -22 32 -13 0 -18 4 -13 13 5 7 1 6 -10 -2
-11 -9 -35 -14 -62 -12 -27 1 -44 -2 -44 -9 0 -7 -6 -8 -19 0 -28 14 -34 13
-27 -7 6 -15 5 -15 -13 1 -14 13 -28 16 -54 11 -22 -4 -34 -12 -31 -19 3 -9
-9 -12 -46 -10 -44 2 -50 0 -50 -18 0 -18 -2 -19 -17 -7 -11 10 -14 10 -9 2 4
-7 3 -13 -2 -13 -6 0 -12 7 -16 15 -3 8 -11 15 -18 15 -9 0 -10 -2 -2 -8 9 -5
8 -11 -2 -20 -13 -12 -18 -8 -15 10 0 4 -9 5 -20 3 -12 -2 -28 2 -35 10 -11
10 -21 12 -39 5 -15 -6 -25 -6 -25 0 0 5 -13 5 -30 -2 -23 -7 -34 -7 -45 2
-11 9 -15 10 -15 1 0 -7 -5 -9 -10 -6 -6 4 -8 10 -5 15 6 10 -51 22 -75 17
-93 -21 -191 -57 -184 -69 4 -6 -1 -8 -14 -4 -14 5 -24 1 -31 -11 -7 -12 -10
-14 -11 -4 0 11 -4 11 -18 -2 -10 -10 -22 -14 -25 -11 -4 4 -13 2 -20 -5 -8
-6 -27 -8 -44 -5 -16 3 -49 1 -72 -6 -24 -6 -45 -9 -47 -7 -7 7 286 93 497
147 383 97 810 170 1184 204 198 18 785 15 988 -5z m-2106 -19 c2 -20 -8 -26
-20 -13 -4 3 -2 12 4 20 15 17 14 17 16 -7z m-457 -176 c-74 -24 -135 -42
-137 -40 -4 4 120 50 177 66 25 7 50 14 55 15 6 2 17 3 25 3 8 0 -46 -20 -120
-44z m-1377 -46 c-14 -24 -55 -101 -90 -173 -35 -71 -63 -124 -63 -116 0 31
159 331 175 331 3 0 -7 -19 -22 -42z m958 -7 c-15 -34 -19 -81 -7 -81 1 0 26
7 55 16 29 8 54 14 56 12 2 -2 -47 -23 -109 -48 l-112 -45 46 60 c25 33 54 77
65 97 26 50 30 42 6 -11z m1309 20 c0 -6 -4 -13 -10 -16 -5 -3 -10 1 -10 9 0
9 5 16 10 16 6 0 10 -4 10 -9z m227 3 c-3 -3 -12 -4 -19 -1 -8 3 -5 6 6 6 11
1 17 -2 13 -5z m123 -15 c0 -5 -7 -9 -15 -9 -15 0 -20 12 -9 23 8 8 24 -1 24
-14z m-825 -7 c-3 -3 -11 0 -18 7 -9 10 -8 11 6 5 10 -3 15 -9 12 -12z m1714
-6 c-9 -10 -59 -14 -54 -5 4 5 18 9 32 9 15 0 24 -2 22 -4z m-2259 -106 c-8
-5 -22 -9 -30 -9 -10 0 -8 3 5 9 27 12 43 12 25 0z m-133 -48 c-33 -15 -55
-31 -50 -35 4 -5 4 -8 -2 -7 -26 6 -46 -1 -39 -12 5 -10 4 -10 -6 -1 -8 7 -22
8 -43 2 -60 -17 -37 -1 40 29 155 59 196 69 100 24z m-337 -127 c0 -6 -128
-65 -138 -64 -6 1 126 67 136 69 1 0 2 -2 2 -5z m-949 -76 c-11 -30 -20 -49
-20 -43 -1 15 30 106 35 101 2 -2 -5 -28 -15 -58z m-34 -111 c-3 -8 -6 -5 -6
6 -1 11 2 17 5 13 3 -3 4 -12 1 -19z m613 -3 c0 -2 -10 -9 -22 -15 -22 -11
-22 -10 -4 4 21 17 26 19 26 11z m-623 -37 c-3 -8 -6 -5 -6 6 -1 11 2 17 5 13
3 -3 4 -12 1 -19z m553 -2 c0 -2 -8 -10 -17 -17 -16 -13 -17 -12 -4 4 13 16
21 21 21 13z m-291 -233 c-18 -23 -51 -53 -57 -53 -3 0 9 16 28 35 36 37 52
47 29 18z"/>
<path d="M4750 6080 c6 -11 13 -20 16 -20 2 0 0 9 -6 20 -6 11 -13 20 -16 20
-2 0 0 -9 6 -20z"/>
<path d="M4925 6080 c-7 -12 2 -12 30 0 19 8 19 9 -2 9 -12 1 -25 -3 -28 -9z"/>
<path d="M2755 5930 c-3 -6 1 -7 9 -4 18 7 21 14 7 14 -6 0 -13 -4 -16 -10z"/>
<path d="M6392 7029 c-105 -52 -155 -134 -155 -254 0 -87 31 -154 98 -213 140
-123 354 -83 436 83 122 248 -133 507 -379 384z m253 -104 c14 -13 25 -36 25
-50 0 -14 -11 -37 -25 -50 -13 -14 -36 -25 -50 -25 -14 0 -37 11 -50 25 -14
13 -25 36 -25 50 0 14 11 37 25 50 13 14 36 25 50 25 14 0 37 -11 50 -25z"/>
<path d="M2523 6969 c-29 -22 -53 -42 -53 -45 0 -2 25 14 55 37 48 36 62 49
53 49 -2 0 -27 -18 -55 -41z"/>
<path d="M2534 6945 c-10 -8 -14 -14 -9 -15 15 0 40 18 34 24 -3 3 -14 -1 -25
-9z"/>
<path d="M2534 6909 c-19 -22 -19 -22 4 -10 12 6 22 16 22 21 0 15 -5 12 -26
-11z"/>
<path d="M2601 6894 c0 -11 3 -14 6 -6 3 7 2 16 -1 19 -3 4 -6 -2 -5 -13z"/>
<path d="M2285 6772 c-48 -46 -115 -121 -85 -94 17 15 34 16 25 1 -9 -14 3
-59 15 -59 6 0 10 7 10 15 0 8 -4 15 -10 15 -5 0 -10 5 -10 10 0 6 8 5 19 -2
18 -11 37 -52 33 -71 -2 -9 43 19 75 47 27 23 30 41 7 32 -14 -6 -15 -4 -4 9
11 13 15 13 21 3 7 -10 12 -9 26 6 17 18 17 18 1 13 -13 -5 -18 -1 -18 13 0
14 -5 18 -17 14 -11 -3 -9 0 3 7 20 10 21 12 5 29 -33 37 -40 48 -34 54 4 3 2
6 -3 6 -5 0 -31 -22 -59 -48z m12 -159 c-3 -10 -5 -2 -5 17 0 19 2 27 5 18 2
-10 2 -26 0 -35z"/>
<path d="M2190 6608 c0 -4 4 -8 9 -8 6 0 12 4 15 8 3 5 -1 9 -9 9 -8 0 -15 -4
-15 -9z"/>
<path d="M3913 6304 c0 -16 6 -17 25 -5 11 6 9 9 -5 13 -12 3 -20 0 -20 -8z"/>
<path d="M3750 6300 c-12 -8 -11 -10 8 -10 12 0 22 5 22 10 0 13 -11 13 -30 0z"/>
<path d="M3786 6293 c-3 -7 3 -17 14 -23 24 -13 30 -13 30 0 0 6 -3 9 -7 8 -5
-2 -9 2 -11 7 -1 6 7 11 18 11 36 2 32 12 -4 11 -20 -1 -38 -7 -40 -14z"/>
<path d="M3866 6290 c-11 -3 -15 -9 -10 -12 5 -3 18 -2 28 2 11 3 15 9 10 12
-5 3 -18 2 -28 -2z"/>
<path d="M3645 6280 c3 -5 8 -10 11 -10 2 0 4 5 4 10 0 6 -5 10 -11 10 -5 0
-7 -4 -4 -10z"/>
<path d="M3740 6250 c0 -5 7 -7 15 -4 8 4 15 8 15 10 0 2 -7 4 -15 4 -8 0 -15
-4 -15 -10z"/>
</g>
</svg>
